<svg width="30" height="30" viewBox="0 0 30 30" fill="none" xmlns="http://www.w3.org/2000/svg">
<path d="M15.0001 13.9848C17.2992 13.9848 19.163 12.3093 19.163 10.2424C19.163 8.17553 17.2992 6.5 15.0001 6.5C12.701 6.5 10.8372 8.17553 10.8372 10.2424C10.8372 12.3093 12.701 13.9848 15.0001 13.9848Z" stroke="#2B67AD" stroke-miterlimit="10"/>
<path d="M17.0309 15.6667H12.9691C11.1208 15.6667 9.34816 16.3268 8.0412 17.5017C6.73424 18.6766 6 20.2702 6 21.9318V22.7424C6 22.9433 6.08878 23.136 6.24682 23.2781C6.40486 23.4202 6.6192 23.5 6.8427 23.5H23.1573C23.3808 23.5 23.5951 23.4202 23.7532 23.2781C23.9112 23.136 24 22.9433 24 22.7424V21.9318C24 20.2702 23.2658 18.6766 21.9588 17.5017C20.6518 16.3268 18.8792 15.6667 17.0309 15.6667V15.6667Z" stroke="#2B67AD" stroke-miterlimit="10"/>
<rect x="0.5" y="0.5" width="29" height="29" rx="14.5" stroke="#2B67AD"/>
</svg>
